<?xml version="1.0" standalone="no"?>
<!DOCTYPE svg PUBLIC "-//W3C//DTD SVG 20010904//EN"
 "http://www.w3.org/TR/2001/REC-SVG-20010904/DTD/svg10.dtd">
<svg version="1.0" xmlns="http://www.w3.org/2000/svg"
 width="481.000000pt" height="481.000000pt" viewBox="0 0 481.000000 481.000000"
 preserveAspectRatio="xMidYMid meet">
<metadata>
Created by potrace 1.11, written by Peter Selinger 2001-2013
</metadata>
<g transform="translate(0.000000,481.000000) scale(0.100000,-0.100000)"
fill="#000000" stroke="none">
<path d="M4415 4111 c-3 -6 -23 -11 -44 -11 -53 0 -69 -17 -79 -80 -6 -44 -11
-54 -25 -52 -13 2 -17 -4 -17 -28 0 -16 5 -30 10 -30 6 0 10 -9 10 -21 0 -11
-4 -18 -9 -15 -5 3 -14 -1 -21 -9 -10 -12 -10 -21 0 -46 11 -24 10 -38 -1 -71
-10 -32 -11 -42 -1 -46 7 -2 12 -21 12 -42 0 -29 6 -41 24 -53 22 -15 23 -22
22 -99 -1 -46 -6 -90 -11 -98 -5 -8 -8 -44 -7 -81 3 -66 2 -67 -43 -120 -28
-33 -58 -57 -76 -62 -25 -7 -30 -12 -25 -29 4 -17 -6 -32 -44 -66 -28 -25 -50
-50 -50 -57 0 -7 -15 -28 -32 -47 l-33 -34 -43 33 c-24 18 -47 31 -52 28 -4
-2 -15 4 -25 15 -12 13 -31 20 -56 20 -21 0 -41 5 -44 10 -3 6 -22 10 -41 10
-37 0 -41 6 -20 35 7 11 19 38 26 60 17 54 29 67 55 61 12 -3 31 2 44 10 17
12 21 24 19 51 -3 35 -12 45 -53 58 -16 5 -17 8 -5 15 11 7 12 12 3 21 -6 6
-9 17 -7 24 3 6 -2 18 -11 25 -18 15 -20 50 -2 50 7 1 5 6 -6 14 -21 16 -15
38 16 51 16 7 24 23 30 59 7 42 5 52 -13 71 -21 23 -26 45 -10 45 19 0 10 19
-15 32 -13 7 -52 30 -86 51 -35 21 -71 36 -80 34 -10 -3 -26 1 -36 9 -10 7
-28 14 -39 14 -12 0 -24 7 -28 15 -4 11 -20 15 -56 15 -38 0 -54 5 -67 20 -17
20 -73 28 -73 11 0 -5 -12 -12 -26 -15 -19 -5 -31 -20 -46 -56 -14 -34 -27
-50 -39 -50 -10 0 -21 -4 -24 -10 -3 -5 -17 -10 -31 -10 -14 0 -33 -7 -42 -16
-15 -15 -17 -15 -25 4 -6 12 -18 24 -28 27 -11 4 -19 13 -19 20 0 22 -22 30
-34 12 -7 -8 -23 -17 -36 -19 -24 -3 -25 -6 -25 -73 0 -64 -3 -74 -27 -98 -16
-16 -25 -33 -21 -43 4 -10 -2 -17 -15 -21 -15 -3 -24 -16 -28 -39 -3 -19 -10
-34 -14 -34 -4 0 -10 -17 -13 -37 -3 -21 -10 -62 -16 -91 -18 -97 5 -176 81
-274 l29 -37 -103 6 c-116 6 -142 15 -133 43 7 22 -11 36 -29 21 -19 -16 -82
52 -78 85 3 22 1 25 -16 20 -14 -5 -31 2 -56 24 l-35 31 -38 -35 -39 -35 -42
32 c-22 18 -41 39 -42 48 0 22 -25 41 -47 37 -29 -4 -76 30 -70 52 8 30 -7 44
-32 28 -20 -12 -25 -9 -71 41 -27 30 -52 68 -56 85 -9 41 -32 86 -45 86 -6 0
-7 -19 -3 -50 7 -54 5 -56 -45 -39 -23 8 -36 8 -43 1 -17 -17 8 -40 45 -44
l31 -3 -30 -15 c-29 -15 -44 -29 -44 -42 0 -13 29 -9 60 7 26 14 30 14 30 1 0
-8 -4 -18 -10 -21 -14 -8 -13 -45 1 -45 6 0 22 13 37 29 l25 30 41 -35 c23
-18 94 -75 158 -125 65 -51 118 -95 118 -99 0 -4 -18 -20 -41 -35 -33 -23 -39
-33 -34 -52 5 -23 4 -23 -80 -23 -48 0 -96 5 -107 11 -15 8 -22 8 -27 0 -5 -7
-22 -7 -61 0 -30 6 -69 11 -86 12 -28 1 -31 4 -32 36 -1 19 -15 79 -32 133
-17 54 -28 103 -25 107 3 5 -19 34 -47 64 -44 45 -61 56 -98 62 -25 4 -65 14
-88 22 -39 13 -46 13 -62 -2 -14 -12 -23 -13 -45 -5 -23 9 -32 8 -44 -5 -13
-12 -13 -17 -3 -24 9 -5 0 -19 -33 -50 -25 -23 -45 -48 -45 -57 0 -9 -6 -28
-14 -42 -17 -33 -46 -158 -46 -200 0 -22 -6 -31 -22 -35 -12 -4 -27 -2 -33 3
-6 5 -32 7 -57 6 -26 -2 -69 0 -95 5 -31 6 -49 6 -51 -1 -7 -21 -31 -8 -63 35
-35 46 -43 51 -93 59 -36 6 -51 -2 -35 -20 9 -11 7 -15 -7 -21 -32 -12 -43
-35 -37 -77 4 -28 2 -42 -9 -50 -13 -10 -19 -34 -47 -171 -11 -58 -38 -116
-68 -147 -17 -18 -27 -42 -30 -72 -4 -29 -11 -46 -19 -46 -7 0 -16 -16 -20
-35 -3 -20 -12 -35 -20 -35 -9 0 -14 -12 -14 -36 0 -27 -7 -41 -26 -56 -19
-16 -24 -27 -20 -44 6 -21 3 -24 -19 -24 -15 0 -25 -5 -24 -12 1 -7 -1 -21 -6
-31 -4 -11 -3 -23 3 -29 9 -9 6 -20 -7 -42 -10 -17 -24 -48 -31 -69 -7 -21
-18 -41 -25 -44 -8 -2 -11 -11 -8 -19 4 -10 -2 -17 -17 -21 -15 -4 -20 -11
-17 -24 3 -11 1 -19 -5 -19 -6 0 -8 -9 -5 -19 3 -13 -1 -21 -12 -24 -10 -2
-27 -30 -41 -66 -12 -34 -33 -70 -46 -80 -19 -15 -21 -21 -10 -30 7 -6 16 -8
19 -4 4 3 7 1 7 -5 0 -18 -83 -176 -97 -185 -7 -4 -13 -19 -13 -31 0 -28 -29
-99 -30 -73 0 20 -11 22 -28 5 -15 -15 -16 -68 -2 -68 6 0 2 -17 -9 -38 -10
-20 -22 -53 -26 -72 -10 -47 -33 -90 -46 -87 -7 1 -14 -4 -16 -10 -3 -7 0 -13
6 -13 8 0 8 -6 -1 -19 -13 -21 6 -57 87 -177 23 -33 55 -93 70 -133 18 -44 44
-89 69 -115 l41 -44 120 -6 c167 -9 318 -10 397 -1 57 6 72 4 95 -10 18 -12
28 -14 31 -7 6 18 72 15 72 -3 0 -19 34 -19 50 0 16 19 31 19 24 0 -5 -13 5
-15 60 -14 49 1 66 5 66 15 0 9 11 14 30 14 19 0 30 -5 30 -14 0 -21 60 -26
92 -8 26 15 30 15 58 -2 21 -12 35 -14 43 -8 7 5 24 12 39 16 21 5 28 3 28 -9
0 -9 9 -15 21 -15 15 0 19 5 15 15 -4 12 6 15 57 15 35 0 68 -5 75 -12 9 -9
21 -8 51 2 23 7 44 9 52 4 17 -11 1409 -12 1409 -1 0 4 32 7 71 7 57 0 75 -4
85 -17 13 -17 15 -17 28 0 16 21 42 22 50 2 3 -8 10 -15 16 -15 5 0 10 7 10
15 0 18 33 20 60 3 15 -10 23 -10 28 -2 4 7 63 14 148 18 120 6 142 5 147 -8
6 -15 32 -13 72 5 25 11 185 17 185 7 0 -5 7 -8 15 -8 8 0 15 5 15 10 0 6 13
10 29 10 17 0 33 -4 36 -10 9 -15 52 -12 58 4 7 17 125 32 140 17 16 -16 37
-13 37 5 0 13 7 15 28 11 15 -2 58 1 95 7 l68 11 23 67 c23 65 56 124 56 100
0 -6 7 -12 15 -12 8 0 15 9 15 20 0 12 -7 20 -17 20 -9 0 -13 3 -9 8 4 4 13 7
19 7 15 0 39 69 26 73 -14 5 -11 36 6 58 13 17 14 17 15 2 0 -23 26 -13 33 13
3 11 1 34 -5 50 -8 22 -7 34 1 42 21 21 12 87 -23 162 -20 43 -32 83 -29 95 3
13 0 20 -9 20 -21 0 -53 59 -39 73 17 17 13 27 -11 27 -16 0 -30 12 -46 41
-33 57 -54 131 -40 140 19 12 -13 69 -40 69 -20 0 -21 3 -12 20 9 17 8 20 -8
20 -13 0 -21 13 -30 46 -7 25 -23 56 -37 70 -14 14 -25 32 -25 41 0 9 -6 13
-14 10 -15 -6 -56 64 -56 95 0 8 -16 32 -35 53 -20 21 -39 50 -42 66 -3 16 -9
29 -14 29 -18 0 -78 107 -72 128 4 17 -1 24 -21 32 -14 5 -26 16 -26 24 0 27
-62 138 -79 143 -10 2 -27 22 -38 43 -20 37 -21 38 -2 66 26 39 24 71 -7 111
l-25 34 28 33 c193 231 198 236 201 214 2 -12 11 -32 19 -44 8 -13 13 -33 11
-45 -2 -17 3 -22 26 -25 16 -2 34 -8 39 -13 16 -16 27 -13 27 6 0 9 7 24 16
34 9 10 18 36 21 59 5 35 11 44 34 52 33 11 36 24 13 49 -14 16 -14 19 7 40
20 20 20 23 6 34 -15 11 -15 13 1 28 13 14 14 21 6 35 -7 9 -18 16 -25 15 -11
-2 -13 16 -9 100 3 56 9 107 13 113 7 12 56 25 95 24 15 0 22 6 22 20 0 10 5
22 10 25 6 3 10 19 10 35 0 33 19 80 32 80 5 0 6 30 2 70 -6 61 -5 70 10 70
15 0 16 9 11 78 -9 108 -13 122 -38 131 -39 14 -184 23 -192 12z m130 -32 c4
-5 18 -9 32 -7 19 2 27 -2 29 -14 1 -10 -1 -18 -5 -18 -8 0 -10 -6 -15 -55 -2
-16 -7 -38 -11 -47 -4 -9 -5 -58 -3 -108 3 -53 1 -90 -5 -90 -5 0 -7 -10 -5
-23 2 -13 -2 -29 -9 -36 -7 -7 -11 -16 -8 -22 4 -5 2 -9 -2 -9 -5 0 -21 -12
-36 -26 -22 -20 -36 -25 -65 -22 l-37 3 0 -165 c-1 -91 -5 -173 -9 -182 -4
-10 -6 -25 -2 -33 3 -8 2 -15 -2 -15 -5 0 -9 -19 -11 -42 -1 -23 -6 -47 -11
-54 -6 -6 -11 -26 -14 -45 -2 -22 -9 -35 -20 -37 -9 -2 -16 0 -15 5 1 4 -4 22
-11 38 -7 17 -12 50 -10 75 1 25 2 55 2 67 0 15 5 20 16 16 10 -4 13 -2 8 6
-6 9 -1 10 19 5 25 -6 26 -4 23 22 -2 23 -8 29 -25 28 -13 0 -23 5 -23 11 0 7
-3 27 -7 45 -4 24 -3 31 6 26 8 -5 12 2 12 26 0 77 6 155 13 166 10 16 -2 52
-17 52 -26 0 -42 35 -42 93 -1 31 3 57 8 57 5 0 7 16 4 35 -4 22 -2 35 5 35 7
0 8 14 4 40 -4 27 -3 40 5 40 7 0 9 11 6 30 -4 16 -2 32 3 35 6 3 10 24 10 45
l0 38 70 4 c40 2 72 -1 75 -7 2 -5 10 -2 17 8 14 19 43 23 53 6z m-1522 -348
c-2 -6 2 -11 7 -11 6 0 10 -7 10 -15 0 -8 -7 -15 -15 -15 -8 0 -15 -5 -15 -11
0 -5 -4 -7 -10 -4 -5 3 -10 1 -10 -5 0 -7 -6 -8 -19 -1 -10 6 -20 8 -23 6 -2
-2 -4 8 -3 23 0 15 7 32 15 39 18 15 66 10 63 -6z m366 -34 c25 -9 48 -14 53
-11 4 3 8 1 8 -5 0 -6 7 -8 15 -5 8 4 15 1 15 -5 0 -6 3 -11 8 -10 15 2 52
-14 52 -23 0 -5 4 -7 9 -4 5 3 11 -1 15 -9 3 -8 12 -15 20 -15 7 0 17 -7 20
-16 4 -9 9 -14 12 -11 8 8 53 -36 47 -46 -2 -4 3 -10 11 -13 9 -3 16 -14 16
-23 0 -10 3 -21 8 -25 4 -4 8 -12 8 -17 1 -5 2 -10 4 -11 11 -14 18 -218 8
-224 -5 -3 -6 -14 -3 -25 4 -11 2 -19 -5 -19 -6 0 -10 -6 -9 -12 3 -25 -1 -35
-26 -64 -13 -15 -23 -29 -21 -31 5 -6 -99 -110 -106 -106 -5 2 -8 -1 -8 -6 0
-6 -7 -11 -15 -11 -8 0 -15 -5 -15 -11 0 -5 -4 -7 -10 -4 -5 3 -10 1 -10 -5 0
-6 -4 -8 -10 -5 -5 3 -10 2 -10 -4 0 -6 -7 -8 -15 -5 -8 4 -15 1 -15 -5 0 -6
-7 -8 -15 -5 -8 4 -15 2 -15 -2 0 -5 -24 -10 -52 -12 -29 -2 -55 -7 -58 -12
-3 -6 -26 -7 -51 -4 -24 3 -56 6 -71 7 -16 1 -28 5 -28 9 0 4 -7 4 -17 1 -12
-5 -14 -3 -8 7 6 10 4 12 -8 7 -9 -3 -17 -2 -19 3 -2 5 -10 10 -18 12 -8 2
-17 5 -20 9 -3 3 -22 16 -43 28 -43 26 -137 117 -137 132 0 5 -6 12 -14 15
-14 5 -41 60 -37 77 0 4 -3 7 -9 7 -12 0 -4 143 10 180 1 3 2 8 1 13 0 4 3 7
9 7 5 0 7 7 4 15 -4 8 -1 15 6 15 6 0 8 5 5 11 -4 6 1 17 11 25 11 9 13 13 4
9 -10 -4 -9 -2 2 8 10 8 15 17 11 20 -3 4 -1 7 6 7 7 0 9 5 6 10 -3 6 -1 10 5
10 6 0 9 4 6 9 -3 5 1 12 10 15 8 3 14 9 12 13 -4 9 55 67 73 71 21 5 59 39
51 46 -3 4 2 4 12 0 15 -6 17 -4 11 6 -6 10 -4 12 7 7 9 -3 19 -3 22 1 4 3 17
7 29 9 12 2 23 7 25 12 1 4 13 6 26 4 13 -3 26 -1 29 4 8 12 124 -1 176 -20z
m-1702 -295 c66 -48 104 -111 128 -216 6 -28 5 -29 -26 -22 -18 3 -46 13 -62
21 -17 8 -39 13 -48 10 -10 -4 -30 2 -44 11 -23 15 -27 15 -43 2 -11 -11 -24
-13 -37 -8 -20 9 -86 2 -95 -9 -6 -7 -113 -42 -117 -38 -7 7 27 118 49 162 31
60 50 78 107 102 54 23 145 16 188 -15z m2128 -143 c2 -8 -2 -22 -9 -30 -13
-16 -56 -23 -56 -9 0 6 5 10 10 10 6 0 10 6 10 13 0 17 21 38 34 34 5 -2 10
-10 11 -18z m-1359 -68 c-7 -10 68 -74 77 -65 3 3 8 0 13 -7 5 -8 3 -10 -7 -5
-8 4 -3 -1 11 -11 14 -10 37 -30 52 -44 15 -15 29 -24 32 -22 2 3 2 -4 0 -14
-7 -25 18 -46 55 -47 16 -1 27 -4 24 -8 -2 -5 0 -8 5 -8 5 0 26 -16 47 -35 21
-19 43 -31 48 -28 6 3 7 1 3 -5 -7 -11 6 -17 27 -13 5 1 6 -3 2 -9 -6 -9 8
-14 28 -11 5 1 6 -2 3 -7 -2 -4 11 -18 30 -31 19 -13 34 -30 34 -38 0 -8 4
-11 10 -8 5 3 7 0 4 -8 -5 -14 32 -65 71 -99 31 -27 107 -24 142 6 l29 25 50
-24 c35 -17 68 -24 119 -26 122 -2 167 0 160 11 -3 6 1 7 10 4 20 -8 228 94
219 107 -3 5 -1 8 5 7 5 -2 43 27 84 64 52 46 78 64 87 58 8 -5 18 -6 24 -3 5
3 6 1 3 -5 -4 -5 13 -28 38 -50 46 -41 57 -62 30 -62 -14 0 -20 -12 -16 -33 1
-5 -3 -6 -9 -2 -5 3 -11 0 -11 -7 -1 -7 -2 -20 -3 -28 0 -8 -14 -21 -29 -28
-15 -8 -32 -24 -37 -36 -5 -13 -16 -26 -25 -30 -9 -3 -13 -11 -9 -17 5 -8 1
-8 -13 0 -17 8 -25 5 -48 -19 -16 -17 -36 -30 -45 -30 -24 0 -61 -30 -54 -43
5 -9 4 -9 -6 0 -9 9 -20 7 -46 -8 -19 -10 -43 -19 -54 -19 -12 0 -20 -7 -20
-16 0 -13 -7 -15 -36 -11 -26 4 -34 3 -31 -6 3 -8 -9 -12 -38 -12 -32 0 -41 3
-37 14 3 9 -1 12 -14 9 -14 -2 -20 -13 -22 -41 -2 -20 1 -37 5 -37 5 0 7 -18
5 -40 -2 -22 0 -40 4 -40 5 0 8 -44 6 -97 -2 -78 -6 -101 -20 -111 -9 -7 -17
-18 -17 -24 0 -6 -19 -11 -42 -12 -22 0 -39 2 -37 5 6 10 -36 19 -91 19 -38 0
-60 -7 -93 -28 -23 -16 -40 -31 -38 -33 9 -9 -79 3 -88 12 -6 5 -19 9 -29 9
-41 0 -161 44 -191 70 -42 37 -94 62 -109 54 -7 -4 -9 -4 -5 1 4 4 -15 25 -43
46 -27 22 -61 57 -75 79 -15 22 -31 37 -35 34 -5 -3 -8 -2 -7 3 3 11 -37 74
-44 68 -2 -3 -5 1 -6 7 -1 7 -4 25 -8 41 -5 21 -3 27 11 27 22 0 185 162 185
183 0 9 -13 23 -28 31 -15 8 -49 37 -74 64 -26 27 -49 48 -51 46 -2 -3 -2 7 0
21 6 28 -13 59 -32 51 -6 -2 -22 5 -36 16 -13 11 -19 17 -12 13 8 -3 15 4 19
20 9 36 -2 42 -37 21 -16 -9 -28 -14 -27 -9 5 14 -43 83 -53 77 -5 -3 -8 0 -7
8 2 7 -3 12 -10 10 -10 -2 -10 2 -2 18 6 11 15 20 20 20 12 0 41 43 44 67 2
10 8 18 14 18 7 0 23 12 37 28 25 26 42 36 31 18z m-1525 -85 c5 3 8 2 7 -3
-5 -14 24 -73 33 -67 5 3 6 -3 2 -12 -4 -12 -3 -15 5 -10 8 5 10 1 5 -10 -4
-12 -3 -15 5 -10 8 5 10 1 5 -10 -5 -13 -3 -15 7 -9 9 5 11 4 6 -4 -4 -6 -3
-18 4 -26 6 -7 13 -25 16 -39 2 -15 13 -35 24 -46 11 -11 17 -26 14 -35 -4 -8
-3 -23 1 -32 5 -10 9 -24 11 -32 1 -8 7 -17 12 -20 17 -11 -6 -48 -37 -59 -20
-7 -31 -8 -31 -1 0 6 -4 8 -9 5 -5 -4 -11 -3 -13 2 -1 4 -34 5 -73 2 -58 -4
-70 -8 -72 -23 -1 -17 7 -18 88 -15 49 2 89 -1 89 -6 0 -4 20 -5 45 -2 44 7
45 7 45 -21 0 -15 3 -38 6 -51 5 -16 3 -22 -7 -20 -7 2 -13 -3 -14 -11 0 -8
-15 -15 -38 -17 -54 -5 -77 -13 -77 -29 0 -8 11 -12 29 -11 17 1 28 -1 25 -5
-5 -8 51 -51 58 -44 2 2 5 -10 6 -28 2 -18 7 -34 12 -35 6 -2 8 -8 4 -13 -3
-5 0 -9 6 -9 6 0 8 -4 5 -10 -3 -5 -1 -10 4 -10 6 0 11 -7 11 -16 0 -8 -4 -12
-10 -9 -5 3 -10 -3 -10 -14 0 -12 4 -21 10 -21 13 0 9 -21 -8 -39 -8 -8 -11
-22 -9 -32 3 -11 1 -19 -5 -19 -5 0 -6 -5 -3 -10 4 -6 3 -10 -2 -9 -4 1 -60 1
-124 0 -83 -1 -121 -5 -135 -15 -34 -26 -5 -37 54 -22 28 8 52 10 52 5 0 -11
146 -11 212 0 26 4 45 4 42 0 -2 -4 3 -12 12 -17 9 -5 16 -12 15 -15 -1 -13
11 -37 18 -33 3 2 6 -12 7 -32 1 -21 4 -47 8 -58 7 -19 5 -21 -17 -17 -20 4
-35 -4 -67 -35 -23 -22 -39 -45 -36 -50 3 -6 0 -13 -6 -16 -11 -5 -11 -7 0
-12 6 -3 10 -10 6 -15 -3 -5 0 -9 5 -9 6 0 17 15 25 34 8 18 23 40 35 48 11 8
19 17 17 19 -2 2 13 4 34 4 21 1 37 -2 34 -6 -2 -4 15 -5 38 -2 29 4 39 3 34
-5 -4 -7 -2 -12 4 -12 13 0 77 -50 73 -56 -8 -11 -2 -44 6 -39 6 3 7 -9 4 -30
-3 -20 -1 -35 4 -35 6 0 8 -11 5 -25 -3 -16 -11 -25 -24 -25 -10 0 -17 -3 -15
-7 3 -5 -11 -9 -31 -11 -21 -1 -38 -6 -40 -11 -2 -5 -12 -7 -22 -4 -11 3 -20
1 -20 -4 0 -5 -44 -5 -106 0 -98 8 -109 7 -157 -13 -61 -27 -87 -30 -105 -13
-7 7 -29 15 -50 18 -20 3 -59 16 -87 29 -54 26 -128 39 -215 40 l-56 1 1 37
c0 20 4 34 9 30 5 -3 7 5 4 16 -4 12 -2 20 2 17 5 -3 16 5 24 17 13 19 19 20
41 10 15 -7 31 -10 36 -7 5 4 9 1 9 -4 0 -6 7 -11 15 -11 8 0 15 4 15 10 0 5
7 7 15 4 20 -8 65 40 65 69 0 26 -33 62 -49 53 -5 -4 -12 -2 -16 4 -4 6 -23 7
-46 4 -41 -7 -45 -1 -41 56 1 8 2 29 4 47 1 17 6 29 10 27 4 -3 8 -1 8 5 0 18
45 57 61 54 12 -3 18 6 23 32 4 19 4 40 0 47 -10 16 -10 88 0 88 5 0 5 19 1
43 -21 112 -10 129 83 128 72 0 91 5 88 27 -3 18 -6 18 -129 21 -48 1 -61 5
-79 26 -21 25 -32 65 -17 65 4 0 11 9 14 20 4 11 11 18 16 15 5 -4 9 -1 9 6 0
7 3 9 7 6 8 -9 34 43 27 54 -3 5 0 9 7 9 7 0 9 10 7 25 -3 14 -1 25 5 25 5 0
7 11 5 25 -3 14 -2 25 2 25 4 0 11 10 15 23 4 12 8 24 10 27 1 3 5 13 10 23 4
10 5 20 2 24 -3 3 1 12 9 20 8 8 12 19 9 24 -4 5 -1 9 4 9 6 0 11 11 11 25 0
14 7 41 14 60 8 19 12 35 8 36 -4 0 2 4 13 8 13 6 23 4 28 -6 5 -7 13 -11 18
-7z m771 -29 c9 -1 15 -3 13 -6 -3 -2 5 -9 17 -15 32 -16 37 -46 7 -39 -12 4
-20 2 -17 -3 8 -12 -155 -6 -208 7 -23 6 -57 8 -75 5 -19 -3 -28 -3 -21 0 6 3
9 11 6 16 -4 7 -2 8 4 4 7 -4 12 -2 12 3 0 6 3 10 8 9 12 -2 62 14 62 21 0 3
16 6 35 6 19 0 35 -3 35 -7 0 -5 -4 -8 -10 -8 -5 0 -2 -8 8 -18 21 -23 28 -20
35 17 6 29 8 29 39 19 18 -6 41 -11 50 -11z m-878 -32 c-4 -8 -8 -15 -10 -15
-2 0 -4 7 -4 15 0 8 4 15 10 15 5 0 7 -7 4 -15z m2816 -9 c0 -2 -8 -10 -17
-17 -16 -13 -17 -12 -4 4 13 16 21 21 21 13z m-2184 -166 c31 0 53 3 51 8 -3
4 6 8 19 8 13 1 24 -3 24 -8 0 -6 7 -8 15 -4 8 3 15 1 15 -5 0 -6 8 -9 18 -7
9 1 23 -1 30 -6 8 -5 18 -4 24 2 6 6 16 8 23 6 7 -3 16 -1 19 4 3 6 24 6 53 1
26 -5 54 -7 61 -4 7 3 10 0 7 -5 -9 -14 -17 -51 -19 -82 0 -14 -4 -29 -8 -33
-4 -4 -5 -20 -1 -35 3 -20 1 -28 -8 -27 -33 1 -50 -4 -44 -13 4 -7 -2 -9 -19
-4 -17 4 -26 2 -26 -6 0 -6 -5 -8 -11 -4 -6 3 -15 0 -20 -7 -6 -10 -9 -11 -9
-1 0 6 -6 12 -13 12 -7 0 -34 13 -60 30 -26 16 -55 29 -65 28 -9 -1 -36 2 -59
6 -32 7 -43 13 -43 27 0 11 -5 19 -11 19 -6 0 -8 8 -4 19 3 10 0 30 -6 44 -6
14 -8 34 -4 44 5 12 9 14 12 6 3 -8 25 -13 59 -13z m111 -217 c65 -35 97 -40
153 -22 45 14 150 27 145 19 -3 -4 14 -13 36 -20 36 -12 43 -12 81 10 37 21
48 22 122 15 117 -11 223 -5 212 13 -2 4 42 5 97 2 107 -6 140 -3 132 11 -3 4
3 7 14 6 20 -1 50 -37 30 -37 -5 0 -8 -4 -5 -8 3 -5 -6 -16 -19 -26 -14 -10
-22 -23 -19 -28 3 -5 0 -9 -7 -7 -27 3 -40 -1 -34 -11 3 -6 -1 -7 -9 -4 -11 4
-16 0 -16 -10 0 -11 -7 -16 -17 -14 -12 2 -19 -4 -21 -20 -5 -31 -36 -46 -56
-26 -9 8 -16 20 -16 26 0 6 -12 8 -29 5 -20 -4 -31 -2 -35 8 -3 8 -16 15 -29
15 -13 0 -29 6 -35 12 -10 10 -15 10 -22 -2 -7 -11 -10 -12 -10 -2 0 8 -6 12
-12 9 -7 -2 -12 -11 -10 -18 3 -11 1 -12 -9 -1 -7 6 -25 12 -40 12 -15 0 -31
5 -34 10 -4 6 -11 8 -16 4 -5 -3 -7 -10 -3 -15 3 -6 -4 -7 -20 -3 -18 4 -26 2
-26 -7 -1 -9 -4 -8 -11 4 -6 9 -15 15 -20 12 -5 -4 -7 -11 -3 -16 3 -5 2 -9
-3 -8 -23 4 -28 -5 -27 -54 3 -102 4 -108 16 -101 6 4 8 3 5 -4 -4 -5 -17 -8
-29 -4 -16 4 -19 2 -13 -9 7 -12 6 -12 -7 -1 -14 11 -18 10 -30 -5 -14 -19
-44 -23 -66 -9 -7 4 -10 11 -7 16 3 4 -2 13 -10 20 -8 7 -15 10 -15 8 0 -3
-18 12 -40 32 -22 20 -40 41 -40 46 0 5 -14 10 -30 11 -18 1 -28 -2 -25 -7 10
-16 -25 -11 -41 5 -19 18 -53 20 -59 3 -4 -9 -27 -13 -68 -14 -42 0 -61 -4
-59 -12 1 -7 -3 -12 -8 -12 -5 0 -10 -7 -10 -15 0 -8 5 -15 12 -15 6 0 8 -3 5
-6 -8 -8 72 -124 86 -124 6 0 7 -3 4 -7 -4 -4 3 -18 17 -32 13 -14 31 -37 39
-51 16 -25 16 -26 -28 -49 -25 -13 -42 -27 -40 -31 3 -4 -2 -10 -10 -14 -17
-6 -21 -36 -5 -36 6 0 10 5 10 11 0 5 4 8 10 4 5 -3 16 5 25 19 9 14 22 23 29
20 8 -3 20 1 27 8 18 17 47 17 58 -1 5 -8 16 -11 26 -8 9 4 14 3 10 -3 -6 -9
8 -14 28 -11 4 0 7 -4 7 -9 0 -7 19 -10 45 -9 25 2 45 6 45 10 0 4 29 6 64 5
35 0 62 -4 60 -7 -5 -8 66 -22 73 -15 20 20 -49 56 -107 56 -17 0 -21 4 -17
20 3 10 2 46 -2 79 l-7 61 33 11 c51 16 75 9 79 -24 1 -16 11 -36 21 -44 10
-8 13 -12 6 -8 -9 4 -10 -2 -1 -26 l11 -31 76 6 c42 3 77 10 79 14 1 4 19 6
39 4 26 -3 34 -1 28 7 -5 9 3 10 30 5 22 -4 36 -3 32 2 -6 10 149 9 176 -1 9
-4 28 -5 42 -3 13 3 26 2 27 -1 6 -13 105 -80 111 -75 11 11 1 -24 -11 -38 -6
-8 -8 -19 -4 -23 4 -5 2 -5 -5 -1 -6 3 -14 2 -18 -4 -4 -7 -12 -7 -25 0 -15 8
-19 5 -24 -16 -4 -14 -4 -34 -1 -45 5 -14 2 -19 -13 -19 -28 0 -55 -35 -50
-65 3 -14 2 -25 -2 -25 -14 0 -20 -31 -11 -49 7 -13 6 -18 -4 -18 -8 0 -11 5
-8 11 4 6 -3 2 -15 -8 -27 -23 -28 -39 -4 -57 15 -12 16 -12 7 1 -5 9 0 5 11
-8 12 -14 27 -21 33 -18 6 4 11 2 11 -5 0 -7 3 -10 6 -6 3 3 12 0 19 -6 11
-10 11 -16 -1 -34 -8 -13 -12 -23 -9 -23 3 0 -4 -9 -15 -20 -12 -12 -19 -24
-17 -28 3 -4 -4 -15 -13 -25 -18 -18 -19 -18 -30 3 -7 13 -17 19 -26 16 -8 -3
-13 -2 -10 3 7 11 -122 41 -175 41 -20 0 -44 -7 -52 -15 -8 -8 -17 -11 -21 -8
-3 3 -24 -6 -46 -21 -22 -15 -53 -31 -68 -37 -26 -10 -27 -11 -7 -25 14 -11
16 -17 8 -22 -8 -5 -9 -13 -3 -22 6 -8 10 -12 10 -8 0 3 23 -17 51 -45 28 -29
48 -46 44 -39 -15 29 5 9 25 -25 15 -26 18 -39 10 -41 -7 -3 -21 -13 -31 -23
-11 -11 -19 -16 -19 -12 0 4 -7 -2 -16 -13 -8 -10 -12 -12 -8 -4 7 13 5 13 -9
1 -9 -7 -17 -17 -17 -22 0 -16 49 -9 59 9 5 9 12 16 15 15 8 -4 100 40 109 52
4 6 10 5 16 -4 5 -8 19 -12 35 -9 14 3 26 1 26 -4 0 -5 4 -7 9 -4 5 3 12 -1
15 -10 4 -11 14 -15 31 -12 13 3 22 1 19 -3 -3 -5 9 -9 25 -9 17 0 31 4 31 9
0 5 9 7 20 4 12 -3 20 0 20 6 0 7 4 10 10 6 15 -9 61 6 53 18 -3 5 -1 7 5 3 6
-3 22 -2 37 4 17 7 24 7 20 0 -3 -6 1 -10 10 -10 11 0 15 5 11 16 -3 8 -2 12
4 9 6 -3 10 -12 10 -20 0 -24 18 -27 47 -8 15 10 24 12 20 6 -6 -9 0 -13 22
-13 21 0 31 5 31 16 0 8 -4 12 -10 9 -5 -3 -10 -2 -10 3 0 17 -51 32 -110 32
-53 0 -60 2 -60 19 0 11 -6 26 -12 33 -7 7 -14 20 -16 28 -2 8 -11 22 -22 31
-11 9 -16 19 -13 23 6 6 -12 10 -29 7 -5 0 -8 6 -8 14 0 8 5 15 11 15 5 0 7 5
4 10 -3 6 -1 10 5 10 6 0 9 4 6 9 -3 5 1 12 10 15 8 3 12 10 9 16 -3 5 -1 10
5 10 7 0 10 7 6 15 -3 9 3 19 15 25 11 6 17 15 14 20 -3 6 5 9 19 8 15 -1 26
-7 26 -12 0 -6 5 -5 12 2 8 8 8 15 -2 27 -17 20 -66 46 -73 39 -9 -9 -66 25
-76 45 -8 15 -4 28 20 61 17 23 25 39 17 35 -7 -4 -1 3 13 16 30 28 59 66 42
56 -6 -4 13 18 43 50 55 56 55 57 87 44 18 -7 40 -14 49 -14 9 -1 14 -6 11
-11 -4 -5 1 -7 11 -3 9 4 15 3 12 -2 -8 -12 50 -35 65 -25 7 4 10 3 6 -3 -4
-6 12 -16 38 -23 40 -11 82 -40 58 -40 -11 0 -113 -125 -113 -138 0 -4 -14
-30 -30 -56 -17 -26 -28 -51 -25 -56 11 -18 -40 -21 -84 -5 -53 18 -48 18 -55
-1 -6 -15 -4 -15 11 -3 15 12 16 12 11 -2 -5 -11 4 -21 29 -33 19 -9 39 -14
44 -11 5 4 9 1 9 -5 0 -7 7 -9 16 -6 8 3 12 2 9 -4 -3 -6 1 -10 9 -10 9 0 15
3 14 8 0 4 2 15 7 25 4 10 5 20 2 24 -8 7 18 33 32 33 10 0 15 14 12 33 0 4 2
6 6 6 19 -3 27 2 16 9 -10 6 -9 14 1 34 8 15 12 29 10 32 -2 4 2 2 8 -4 15
-13 48 -13 48 0 0 5 -7 13 -16 18 -14 8 -12 13 15 33 17 12 31 27 31 33 0 15
62 76 77 76 7 0 10 7 7 15 -4 10 -2 13 8 10 7 -3 22 2 33 11 11 8 14 12 6 8
-9 -4 -12 -3 -7 4 4 6 14 8 22 5 9 -3 20 0 25 8 6 9 9 10 9 2 0 -9 14 -10 50
-6 36 4 50 2 50 -7 0 -7 7 -10 15 -6 8 3 15 1 15 -4 0 -20 53 -9 82 15 27 23
36 25 77 19 25 -4 54 -11 64 -16 9 -5 22 -6 27 -3 6 4 9 1 8 -7 -2 -8 7 -13
25 -13 15 1 27 -3 27 -7 0 -10 54 -11 64 -1 4 4 17 8 28 8 12 0 22 7 24 18 2
14 -6 17 -39 18 -23 0 -64 5 -92 10 -27 6 -58 11 -67 12 -10 1 -18 5 -18 10 0
5 -6 7 -12 5 -34 -12 -56 74 -45 177 1 11 -3 19 -8 18 -6 -1 -11 10 -10 25 0
18 -5 26 -14 24 -9 -2 -11 2 -6 15 5 10 9 27 9 39 1 19 6 21 51 18 52 -4 115
11 115 26 0 5 7 6 17 3 9 -4 14 -2 10 3 -6 10 11 14 83 17 50 2 84 -19 94 -59
4 -13 10 -24 14 -24 4 0 6 -20 4 -45 -2 -25 -1 -53 3 -63 5 -9 10 -26 12 -37
2 -11 11 -26 21 -33 10 -8 16 -23 14 -38 -3 -20 0 -25 14 -22 10 2 19 -2 19
-9 0 -6 3 -14 7 -18 3 -4 4 -22 1 -41 -3 -20 -1 -34 5 -34 5 0 8 -9 5 -21 -7
-24 63 -102 85 -94 7 2 10 0 7 -5 -3 -6 1 -10 9 -10 8 0 42 -31 75 -69 32 -38
62 -67 66 -63 3 4 3 -2 -1 -12 -4 -11 -3 -17 2 -14 5 4 10 -5 11 -19 0 -14 6
-29 13 -33 8 -5 9 -16 5 -30 -6 -19 -4 -22 9 -17 10 4 15 3 12 -2 -6 -9 22
-26 37 -22 5 1 6 -3 3 -8 -4 -5 -2 -12 3 -16 6 -3 8 -12 5 -19 -3 -8 0 -17 5
-21 6 -3 9 -10 6 -15 -10 -16 21 -74 56 -105 28 -25 31 -26 15 -5 -11 14 -4 9
15 -10 19 -19 34 -37 32 -39 -4 -6 27 -61 35 -61 4 0 9 -16 10 -37 2 -20 5
-39 7 -43 2 -4 -2 -7 -9 -7 -7 0 -13 7 -12 16 1 21 -33 26 -47 8 -7 -8 -29
-17 -49 -19 -30 -3 -37 -1 -35 12 3 21 -53 27 -65 6 -6 -11 -24 -16 -59 -16
-28 0 -59 -4 -69 -10 -15 -8 -17 -6 -13 10 4 14 0 20 -11 20 -10 0 -15 -4 -12
-8 12 -19 -14 -30 -81 -34 -39 -2 -71 -1 -71 2 2 21 -5 30 -23 30 -17 0 -20
-5 -16 -21 6 -22 5 -22 -95 -16 -55 4 -106 11 -114 17 -7 7 -35 10 -61 9 -27
-1 -55 1 -63 6 -9 5 -15 4 -18 -3 -2 -7 -9 -9 -15 -5 -6 4 -8 0 -4 -10 8 -22
-25 -23 -57 -2 -30 20 -153 8 -148 -14 2 -11 -8 -13 -48 -8 -38 5 -52 3 -56
-7 -4 -10 -18 -12 -50 -8 -30 3 -44 1 -44 -7 0 -15 -61 -4 -72 12 -11 18 -50
15 -55 -4 -3 -11 -17 -18 -37 -21 -27 -3 -32 -1 -29 13 4 13 -4 18 -36 24 -44
7 -61 2 -61 -20 0 -9 -11 -14 -27 -15 -16 0 -93 -4 -172 -9 -113 -7 -149 -7
-163 3 -10 7 -15 16 -11 19 3 4 -1 7 -10 7 -10 0 -17 -5 -17 -11 0 -5 -4 -8
-9 -4 -5 3 -11 -2 -13 -11 -2 -12 -15 -17 -50 -18 -26 0 -46 3 -45 9 3 14
-113 19 -126 6 -7 -7 -88 -11 -225 -11 -209 0 -214 0 -233 23 -10 12 -18 17
-19 10 0 -7 -7 -10 -15 -7 -9 4 -15 0 -15 -7 -1 -8 -8 -2 -16 14 -16 30 -16
30 -38 21 -23 -9 -20 -33 7 -44 19 -7 16 -9 -18 -9 -29 -1 -43 4 -52 18 -10
15 -18 18 -40 12 -15 -5 -27 -13 -26 -19 2 -7 -55 -11 -167 -12 -118 0 -170 3
-170 10 0 8 -15 9 -45 4 -37 -5 -50 -3 -66 12 -14 13 -22 15 -30 7 -6 -6 -18
-9 -25 -6 -8 3 -14 0 -14 -6 0 -12 -21 -11 -31 2 -9 13 -113 22 -105 9 3 -6 2
-13 -3 -16 -5 -4 -12 -2 -15 3 -4 6 -43 7 -94 4 -70 -5 -94 -2 -119 11 -20 10
-34 12 -38 6 -7 -11 -185 -14 -185 -2 1 4 7 18 15 32 16 29 20 94 5 85 -6 -4
-9 7 -8 28 2 19 6 33 9 31 6 -4 29 40 29 57 0 5 18 27 41 49 l40 38 -3 74 c-2
56 0 73 10 73 8 0 19 7 25 15 13 16 110 23 100 7 -3 -5 8 -6 26 -2 17 4 31 3
31 -2 0 -4 11 -13 25 -20 19 -8 24 -8 19 0 -3 7 1 4 9 -5 8 -10 17 -15 20 -11
4 3 7 1 7 -7 0 -9 9 -11 30 -6 22 4 29 2 24 -6 -5 -8 -2 -9 9 -5 10 3 17 3 17
-1 0 -7 63 -32 87 -34 7 -1 9 -6 6 -11 -4 -6 0 -8 10 -4 9 3 19 1 23 -5 5 -7
2 -8 -7 -3 -8 4 0 -4 16 -19 17 -14 35 -25 41 -26 5 0 19 -7 30 -16 10 -8 13
-12 5 -8 -7 4 -3 -7 9 -24 29 -40 49 -47 69 -26 12 12 12 15 2 9 -11 -6 -13
-4 -8 8 4 10 -2 21 -16 30 -12 8 -42 35 -67 59 -34 34 -43 48 -34 56 7 6 14 8
18 5 3 -3 18 -1 33 5 45 17 85 24 79 13 -4 -5 7 -12 24 -16 33 -7 113 3 106
13 -2 4 12 7 32 7 21 1 46 5 57 9 11 5 30 8 41 7 12 -1 28 5 37 13 17 17 143
24 133 7 -5 -8 106 -37 132 -35 6 1 12 -2 12 -7 0 -5 7 -9 15 -9 27 0 16 29
-17 44 -38 18 -166 46 -209 46 -18 0 -29 5 -29 14 0 28 -51 171 -65 182 -8 6
-12 14 -9 17 3 3 -14 11 -38 17 -23 7 -54 16 -68 19 -27 8 -40 48 -19 61 7 5
9 15 4 26 -5 11 -7 24 -6 30 2 14 -27 26 -41 17 -6 -3 -8 -1 -5 4 4 6 0 16 -8
23 -8 7 -15 18 -15 25 0 14 -42 35 -70 35 -11 0 -20 6 -20 14 0 16 27 29 41
20 15 -9 10 8 -7 27 -10 12 -18 43 -21 90 -3 52 -9 77 -21 87 -9 7 -11 10 -3
7 9 -5 7 1 -4 19 -10 15 -26 31 -37 37 -18 10 -18 11 7 31 14 11 32 33 40 48
18 34 20 106 4 116 -8 4 -7 9 2 14 7 5 22 2 35 -7 13 -8 28 -12 34 -8 5 3 10
1 10 -5 0 -7 7 -9 16 -6 9 3 12 2 9 -4 -4 -7 3 -9 18 -6 34 6 67 24 67 37 0 6
4 8 8 5 5 -3 38 -2 73 2 35 4 66 5 69 2 3 -3 33 -20 67 -37z m655 -147 c-3 -5
5 -7 16 -4 14 4 20 2 15 -5 -4 -6 2 -8 15 -5 12 4 20 3 17 -1 -6 -11 64 -43
77 -35 7 4 8 2 4 -4 -4 -7 -2 -13 3 -13 6 -1 17 -2 24 -3 6 0 12 -6 12 -13 0
-11 130 -164 136 -160 2 1 3 0 1 -3 -5 -8 -177 2 -180 11 -2 5 -13 9 -23 9
-27 0 -61 -19 -54 -30 10 -17 -40 4 -53 22 -16 22 -36 13 -29 -13 6 -23 -18
-26 -27 -3 -9 24 -60 14 -64 -12 -2 -12 -12 -24 -23 -27 -10 -3 -17 -1 -14 3
3 5 -1 15 -9 23 -8 8 -13 16 -11 19 9 8 -16 143 -28 153 -12 10 -20 70 -12 93
4 11 29 13 109 10 59 -2 102 -7 98 -12z m-573 -75 c11 -7 9 -14 -12 -34 -33
-30 -33 -43 -4 -87 13 -19 36 -58 52 -87 15 -29 32 -50 38 -46 6 3 7 1 3 -5
-17 -28 -94 36 -144 120 -13 21 -28 36 -33 32 -5 -3 -8 -2 -7 3 2 4 -10 25
-27 47 -28 37 -28 39 -10 52 21 16 122 19 144 5z m82 -51 c-3 -3 -7 -13 -7
-23 -1 -12 4 -17 15 -14 9 2 15 8 14 14 -1 5 9 15 22 21 20 9 25 9 25 -1 0 -7
-5 -18 -12 -25 -9 -9 -9 -15 -1 -23 13 -13 36 -3 28 12 -4 5 -1 9 4 9 6 0 11
-7 11 -15 0 -31 19 -57 34 -47 5 3 7 -2 3 -11 -3 -10 -3 -17 1 -17 4 0 8 -20
9 -45 1 -25 -2 -45 -7 -45 -5 0 -12 -9 -15 -20 -3 -11 -15 -20 -26 -20 -10 0
-19 -5 -19 -11 0 -6 -6 -9 -12 -7 -7 3 -13 12 -13 21 0 8 -8 24 -17 34 -47 50
-56 62 -51 67 4 3 1 6 -6 6 -7 0 -10 4 -7 8 3 5 -3 18 -14 29 -10 12 -17 23
-14 25 2 3 -4 13 -14 24 -18 18 -17 20 22 57 35 32 41 35 47 20 3 -10 4 -20 0
-23z m1746 -202 c-3 -8 -6 -5 -6 6 -1 11 2 17 5 13 3 -3 4 -12 1 -19z m-582
-148 c3 -6 -1 -7 -9 -4 -18 7 -21 14 -7 14 6 0 13 -4 16 -10z m-2545 -104 c0
-3 -4 -8 -10 -11 -5 -3 -10 -1 -10 4 0 6 5 11 10 11 6 0 10 -2 10 -4z m368 -2
c29 -8 28 -28 -4 -53 -26 -21 -28 -21 -58 -3 -39 23 -46 49 -14 55 37 7 52 7
76 1z m1644 -330 c-3 -28 -1 -35 9 -32 8 3 14 11 14 19 0 8 5 17 10 21 20 15
35 7 35 -18 0 -19 4 -25 18 -22 9 2 16 11 16 21 -1 9 -1 17 1 17 10 0 71 -70
66 -76 -3 -4 2 -4 12 -1 13 5 20 0 27 -18 5 -14 14 -25 20 -25 6 0 8 -4 5 -10
-3 -5 -1 -10 5 -10 6 0 8 -4 5 -10 -3 -5 -1 -10 5 -10 6 0 9 -4 5 -9 -3 -5 -1
-12 4 -16 20 -12 -1 -34 -45 -46 -24 -7 -44 -16 -44 -19 0 -3 -16 -5 -35 -5
-19 0 -35 4 -35 8 0 5 -4 6 -10 2 -5 -3 -16 7 -24 22 -14 27 -76 93 -76 81 0
-4 -13 5 -29 20 -23 20 -28 29 -20 43 13 25 11 86 -3 93 -7 4 2 4 20 1 17 -2
32 0 32 5 0 6 4 10 8 10 4 0 6 -16 4 -36z m-100 3 c13 -20 9 -49 -9 -69 -15
-17 -15 -20 12 -48 15 -16 33 -27 38 -23 6 3 7 1 3 -5 -7 -11 7 -17 29 -12 6
1 7 -2 3 -5 -4 -4 3 -16 15 -27 l22 -19 -39 6 c-76 12 -204 136 -176 170 6 8
20 17 31 20 11 4 17 9 15 13 -2 4 8 8 22 9 15 0 30 -4 34 -10z m1176 -404
c-16 -2 -40 -2 -55 0 -16 2 -3 4 27 4 30 0 43 -2 28 -4z m-1698 -43 c0 -5 -2
-10 -4 -10 -3 0 -8 5 -11 10 -3 6 -1 10 4 10 6 0 11 -4 11 -10z m-537 -397
c-13 -2 -35 -2 -50 0 -16 2 -5 4 22 4 28 0 40 -2 28 -4z m3047 -13 c0 -5 -10
-10 -22 -10 -19 0 -20 2 -8 10 19 13 30 13 30 0z"/>
<path d="M4480 3961 c0 -6 -25 -40 -55 -76 -56 -66 -66 -85 -41 -85 18 0 138
139 133 154 -5 14 -37 21 -37 7z"/>
<path d="M4456 3764 c-20 -32 -26 -48 -18 -56 8 -8 20 3 41 37 28 43 32 65 13
65 -4 0 -20 -21 -36 -46z"/>
<path d="M3105 3601 c-11 -5 -35 -22 -53 -39 -26 -24 -32 -39 -34 -74 -2 -66
0 -76 24 -109 46 -62 152 -62 222 2 39 35 52 92 34 153 -10 31 -20 42 -52 57
-43 19 -107 24 -141 10z m95 -24 c0 -5 4 -6 9 -3 14 9 58 -18 53 -32 -2 -6 1
-12 8 -12 6 0 8 -4 5 -10 -3 -5 -1 -10 4 -10 6 0 11 -9 11 -20 0 -11 -5 -20
-11 -20 -6 0 -10 -8 -8 -17 4 -18 -55 -85 -66 -75 -3 3 -5 0 -5 -7 0 -7 -5 -9
-10 -6 -6 4 -17 2 -24 -4 -10 -8 -22 -8 -41 -1 -15 6 -30 8 -35 5 -15 -9 -52
55 -52 89 0 58 39 116 81 119 12 1 21 4 21 8 0 3 13 6 30 5 16 -1 30 -5 30 -9z"/>
<path d="M3150 3505 c-15 -18 -9 -49 10 -52 27 -5 43 13 36 41 -7 29 -27 34
-46 11z"/>
<path d="M3434 3451 c-42 -19 -88 -66 -99 -102 -19 -58 39 -150 104 -164 39
-8 96 8 152 44 43 27 46 32 52 82 6 46 3 57 -19 86 -28 37 -91 73 -126 72 -13
0 -41 -9 -64 -18z m86 -24 c0 -5 7 -7 15 -3 8 3 15 0 15 -6 0 -6 3 -9 6 -6 13
14 57 -48 59 -82 2 -49 -3 -59 -41 -75 -19 -8 -34 -19 -34 -24 0 -6 -7 -8 -15
-5 -8 4 -15 2 -15 -2 0 -27 -136 6 -141 34 -6 30 -4 92 2 92 5 0 8 4 7 9 -4
11 49 61 56 53 3 -3 6 0 6 7 0 7 5 9 10 6 6 -3 10 -3 10 2 0 4 14 8 30 9 17 1
30 -3 30 -9z"/>
<path d="M3464 3345 c-10 -24 19 -49 45 -40 16 5 21 13 19 28 -4 28 -55 37
-64 12z"/>
<path d="M3065 3210 c-19 -37 -22 -88 -7 -116 6 -11 29 -33 51 -49 37 -25 47
-27 96 -22 47 5 59 11 90 44 19 21 35 43 35 50 0 28 -23 21 -63 -22 -31 -32
-51 -45 -72 -45 -36 0 -87 32 -105 65 -14 26 -13 31 14 96 14 32 -23 30 -39
-1z"/>
<path d="M3484 2565 c-8 -19 12 -36 33 -28 19 7 12 37 -10 41 -9 2 -20 -4 -23
-13z"/>
<path d="M3240 2451 c0 -23 14 -41 31 -41 14 0 19 7 19 25 0 20 -5 25 -25 25
-14 0 -25 -4 -25 -9z"/>
<path d="M3240 2346 c0 -25 12 -46 26 -46 17 0 18 14 4 41 -12 22 -30 25 -30
5z"/>
<path d="M2977 2320 c-4 -15 0 -20 14 -20 12 0 19 7 19 20 0 11 -6 20 -14 20
-7 0 -16 -9 -19 -20z"/>
<path d="M3302 2263 c2 -10 10 -18 18 -18 8 0 16 8 18 18 2 12 -3 17 -18 17
-15 0 -20 -5 -18 -17z"/>
<path d="M3070 2170 c0 -11 7 -20 15 -20 8 0 15 9 15 20 0 11 -7 20 -15 20 -8
0 -15 -9 -15 -20z"/>
<path d="M3212 2153 c5 -26 38 -29 38 -4 0 15 -6 21 -21 21 -14 0 -19 -5 -17
-17z"/>
<path d="M920 2905 c0 -16 6 -25 15 -25 16 0 19 9 9 34 -9 25 -24 19 -24 -9z"/>
<path d="M860 2751 c0 -15 6 -21 21 -21 14 0 19 5 17 17 -5 26 -38 29 -38 4z"/>
<path d="M856 2604 c-7 -19 1 -34 19 -34 8 0 16 4 19 9 9 14 -4 41 -19 41 -7
0 -16 -7 -19 -16z"/>
<path d="M925 2531 c-8 -15 3 -31 21 -31 9 0 14 7 12 17 -4 20 -24 28 -33 14z"/>
<path d="M854 2411 c-41 -25 -41 -26 -49 -97 l-7 -61 32 -12 c44 -15 102 -14
125 3 13 9 19 29 21 72 4 74 0 88 -32 102 -35 17 -54 15 -90 -7z m74 -27 c20
-6 22 -11 16 -43 -11 -59 -21 -71 -60 -71 l-36 0 7 53 c4 28 9 55 12 60 5 8
30 9 61 1z"/>
<path d="M1004 2359 c-3 -6 -2 -15 3 -20 14 -14 43 0 36 17 -6 17 -29 19 -39
3z"/>
<path d="M1066 2302 c-2 -4 -1 -14 3 -20 10 -17 41 -4 34 14 -6 15 -29 19 -37
6z"/>
<path d="M967 2213 c-4 -3 -7 -12 -7 -20 0 -15 26 -18 34 -4 7 11 -18 33 -27
24z"/>
<path d="M1084 2055 c-9 -23 10 -40 25 -22 9 11 8 17 -4 27 -12 10 -16 9 -21
-5z"/>
<path d="M770 2040 c0 -11 6 -20 13 -20 19 0 27 10 20 26 -8 21 -33 17 -33 -6z"/>
<path d="M830 1965 c0 -16 6 -25 15 -25 16 0 19 9 9 34 -9 25 -24 19 -24 -9z"/>
<path d="M984 1940 c-60 -62 -73 -77 -78 -96 -7 -23 25 -64 51 -64 16 0 55 11
115 32 28 10 43 46 33 78 -7 21 -67 70 -87 70 -8 0 -23 -9 -34 -20z m61 -31
c4 -6 12 -8 19 -6 8 3 10 -6 8 -29 -3 -28 -8 -34 -28 -34 -13 0 -34 -5 -48
-11 -14 -7 -31 -9 -39 -6 -11 4 -4 17 27 51 43 48 51 53 61 35z"/>
<path d="M1340 1761 c0 -15 6 -21 21 -21 14 0 19 5 17 17 -5 26 -38 29 -38 4z"/>
<path d="M1177 1754 c-14 -15 -6 -34 14 -34 14 0 19 5 17 17 -3 18 -20 27 -31
17z"/>
<path d="M1083 1715 c-7 -20 2 -29 21 -22 9 4 13 13 10 22 -8 19 -23 19 -31 0z"/>
<path d="M1640 3053 c0 -4 4 -14 9 -22 11 -17 45 -7 39 12 -5 13 -48 23 -48
10z"/>
<path d="M1543 2793 c-7 -2 -13 -10 -13 -17 0 -9 16 -9 65 -2 38 6 60 13 52
18 -13 8 -85 9 -104 1z"/>
<path d="M1647 2743 c-15 -14 -6 -23 22 -23 37 0 49 16 18 24 -28 7 -32 7 -40
-1z"/>
<path d="M1243 2604 c-8 -21 13 -42 28 -27 13 13 5 43 -11 43 -6 0 -13 -7 -17
-16z"/>
<path d="M1720 2545 c0 -27 9 -32 28 -13 8 8 9 15 1 25 -17 20 -29 15 -29 -12z"/>
<path d="M1540 2511 c0 -15 6 -21 21 -21 14 0 19 5 17 17 -5 26 -38 29 -38 4z"/>
<path d="M1300 2358 c0 -7 5 -20 10 -28 9 -13 12 -12 25 4 8 10 12 23 9 27 -8
14 -44 10 -44 -3z"/>
<path d="M1346 2204 c-8 -21 1 -34 25 -34 20 0 23 8 13 34 -8 21 -30 21 -38 0z"/>
<path d="M2255 2100 c-4 -7 -3 -16 3 -22 14 -14 45 -2 40 15 -6 16 -34 21 -43
7z"/>
<path d="M2440 2045 c0 -16 6 -25 15 -25 9 0 15 9 15 25 0 16 -6 25 -15 25 -9
0 -15 -9 -15 -25z"/>
<path d="M2334 2035 c-6 -15 2 -35 14 -35 4 0 13 4 21 9 12 8 12 12 2 25 -17
20 -30 20 -37 1z"/>
<path d="M3830 1980 c0 -11 7 -20 15 -20 8 0 15 9 15 20 0 11 -7 20 -15 20 -8
0 -15 -9 -15 -20z"/>
<path d="M1860 1960 c0 -13 7 -20 18 -20 26 0 34 11 21 27 -17 20 -39 16 -39
-7z"/>
<path d="M1490 1951 c0 -12 6 -21 16 -21 9 0 14 7 12 17 -5 25 -28 28 -28 4z"/>
<path d="M3399 1963 c-1 -5 -1 -12 0 -16 1 -5 -12 -6 -28 -2 -17 3 -32 2 -36
-4 -3 -6 -18 -11 -32 -11 -22 0 -25 -3 -21 -30 3 -16 1 -30 -3 -30 -3 0 -12
-13 -19 -30 -7 -16 -17 -30 -22 -30 -6 0 -8 -30 -6 -70 2 -56 0 -69 -11 -65
-8 3 -26 -10 -44 -30 -16 -19 -35 -35 -41 -35 -17 0 -46 -80 -46 -126 0 -49
32 -74 68 -55 29 15 43 13 72 -10 23 -19 23 -22 7 -34 -18 -13 -23 -45 -7 -45
6 0 23 14 39 32 23 26 39 33 87 40 32 5 81 12 107 16 26 4 47 12 47 17 0 15
-61 28 -84 17 -20 -9 -21 -6 -21 35 l1 44 81 33 c78 31 81 32 93 13 8 -14 9
-22 1 -30 -35 -35 9 -50 45 -16 14 13 41 22 80 26 33 3 71 12 87 20 15 7 33
13 40 12 6 -1 33 -1 60 0 35 1 47 5 47 16 0 12 -14 15 -70 15 -68 0 -70 1 -70
24 0 14 -5 28 -10 31 -14 9 -3 24 26 35 15 6 24 18 24 31 0 28 -57 99 -79 99
-9 0 -22 5 -29 12 -8 8 -15 8 -25 0 -7 -6 -23 -9 -34 -6 -12 4 -36 -1 -54 -10
-38 -19 -39 -19 -39 -5 0 18 -52 80 -81 95 -15 8 -37 14 -49 14 -11 0 -20 5
-20 10 0 11 -29 14 -31 3z m151 -132 c0 -3 -12 -12 -27 -18 -44 -21 -68 13
-41 57 12 19 13 19 40 -7 16 -15 28 -29 28 -32z m-188 -25 c14 -20 9 -76 -7
-82 -8 -4 -13 -9 -11 -13 3 -4 -3 -7 -12 -7 -9 0 -27 -4 -39 -8 -19 -6 -21 -3
-25 43 -1 27 0 47 3 45 8 -5 21 25 15 35 -8 12 69 -1 76 -13z"/>
<path d="M2080 1915 c0 -18 24 -30 40 -20 8 5 8 11 -1 21 -15 19 -39 18 -39
-1z"/>
<path d="M1620 1899 c0 -25 33 -22 38 4 2 12 -3 17 -17 17 -15 0 -21 -6 -21
-21z"/>
<path d="M1854 1905 c-7 -18 3 -35 21 -35 18 0 26 25 12 39 -15 15 -27 14 -33
-4z"/>
<path d="M4105 1850 c10 -11 20 -20 23 -20 3 0 -3 9 -13 20 -10 11 -20 20 -23
20 -3 0 3 -9 13 -20z"/>
<path d="M3917 1834 c-14 -15 -6 -34 14 -34 14 0 19 5 17 17 -3 18 -20 27 -31
17z"/>
<path d="M2300 1795 c-4 -11 -6 -22 -4 -24 5 -6 74 9 74 17 -1 34 -57 40 -70
7z"/>
<path d="M2033 1784 c-8 -21 13 -42 28 -27 13 13 5 43 -11 43 -6 0 -13 -7 -17
-16z"/>
<path d="M2477 1743 c-14 -13 -6 -33 13 -33 13 0 20 7 20 20 0 19 -20 27 -33
13z"/>
<path d="M1830 1690 c0 -15 5 -20 18 -18 9 2 17 10 17 18 0 8 -8 16 -17 18
-13 2 -18 -3 -18 -18z"/>
<path d="M1972 1678 c2 -12 10 -23 18 -23 22 0 19 39 -3 43 -15 3 -18 -1 -15
-20z"/>
<path d="M717 1583 c-10 -9 -9 -43 1 -43 15 0 30 22 25 36 -6 15 -16 18 -26 7z"/>
<path d="M4111 1531 c-8 -15 -7 -20 5 -25 23 -9 24 -8 24 13 0 28 -17 35 -29
12z"/>
<path d="M780 1485 c0 -18 5 -25 20 -25 22 0 26 20 8 38 -19 19 -28 14 -28
-13z"/>
<path d="M4044 1495 c-7 -18 3 -35 22 -35 8 0 14 10 14 25 0 27 -27 35 -36 10z"/>
<path d="M1394 1485 c-7 -18 3 -35 21 -35 18 0 26 25 12 39 -15 15 -27 14 -33
-4z"/>
<path d="M1770 1460 c0 -23 25 -27 33 -6 7 16 -1 26 -20 26 -7 0 -13 -9 -13
-20z"/>
<path d="M1540 1450 c0 -11 6 -20 14 -20 20 0 28 27 10 34 -23 9 -24 8 -24
-14z"/>
<path d="M3870 1451 c0 -12 6 -21 16 -21 9 0 14 7 12 17 -5 25 -28 28 -28 4z"/>
<path d="M1297 1443 c-10 -9 -9 -43 1 -43 12 0 32 23 32 37 0 14 -22 18 -33 6z"/>
<path d="M4206 1425 c-8 -21 1 -35 20 -35 10 0 14 8 12 22 -4 27 -23 34 -32
13z"/>
<path d="M830 1370 c0 -15 5 -20 18 -18 9 2 17 10 17 18 0 8 -8 16 -17 18 -13
2 -18 -3 -18 -18z"/>
<path d="M1533 1364 c-3 -8 -1 -20 5 -26 15 -15 43 -2 36 16 -8 21 -34 28 -41
10z"/>
<path d="M4220 1361 c0 -12 6 -21 16 -21 9 0 14 7 12 17 -5 25 -28 28 -28 4z"/>
<path d="M550 1350 c0 -11 7 -20 15 -20 8 0 15 6 15 14 0 8 -7 16 -15 20 -10
4 -15 -1 -15 -14z"/>
<path d="M1908 1313 c-10 -2 -18 -14 -18 -25 0 -16 5 -19 23 -14 12 3 25 6 30
6 4 0 7 9 7 20 0 20 -8 22 -42 13z"/>
<path d="M1225 1300 c-8 -14 3 -30 21 -30 16 0 16 2 8 24 -7 18 -20 21 -29 6z"/>
<path d="M1397 1303 c-4 -3 -7 -15 -7 -25 0 -21 25 -24 33 -4 6 16 -16 40 -26
29z"/>
<path d="M677 1293 c-4 -3 -7 -12 -7 -20 0 -15 26 -18 34 -4 7 11 -18 33 -27
24z"/>
<path d="M992 1274 c2 -11 11 -20 22 -22 13 -3 17 1 14 14 -2 11 -11 20 -22
22 -13 3 -17 -1 -14 -14z"/>
<path d="M3860 1250 c0 -13 5 -20 13 -17 6 2 12 10 12 17 0 7 -6 15 -12 18 -8
2 -13 -5 -13 -18z"/>
<path d="M767 1238 c-17 -18 -17 -48 0 -48 12 0 34 53 26 60 -5 4 -16 -2 -26
-12z"/>
<path d="M2137 2416 c-3 -8 1 -17 10 -20 20 -8 27 -1 20 19 -8 19 -23 20 -30
1z"/>
<path d="M2317 2396 c-3 -8 1 -17 10 -20 20 -8 27 -1 20 19 -8 19 -23 20 -30
1z"/>
<path d="M2126 2321 c-8 -12 10 -41 25 -41 13 0 11 13 -4 35 -10 13 -16 15
-21 6z"/>
</g>
</svg>
